# xmcd
#
# Track frame offsets:
#	150
#	17945
#	35692
#	49502
#	62302
#	78610
#	96560
#	116822
#	142032
#	164025
#	179855
#	190087
#	202402
#	227795
#	249797
#	268907
#
# Disc length: 3910 seconds
#
# Revision: 1
# Processed by: cddbd v1.4PL0 Copyright (c) Steve Scherf et al.
# Submitted via: CDmax 1.8
#
DISCID=f70f4410
DTITLE=Clint Black - Greatest Hits II
DYEAR=2001
DGENRE=Country
TTITLE0=The Shoes You're Wearing
TTITLE1=Nothin' But The Taillights
TTITLE2=Nothing's News
TTITLE3=Walkin' Away
TTITLE4=When My Ship Comes In
TTITLE5=Something That We Do
TTITLE6=When I Said I Do
TTITLE7=Been There
TTITLE8=Still Holding On
TTITLE9=Nobody's Home
TTITLE10=One More Payment
TTITLE11=One Emotion
TTITLE12=Easy For Me To Say
TTITLE13=Little Pearl And Lily's Lullaby
TTITLE14=Money Or Love
TTITLE15=Put Yourself In My Shoes
EXTD=
EXTT0=
EXTT1=
EXTT2=
EXTT3=
EXTT4=
EXTT5=
EXTT6=
EXTT7=
EXTT8=
EXTT9=
EXTT10=
EXTT11=
EXTT12=
EXTT13=
EXTT14=
EXTT15=
PLAYORDER=
